<?xml version="1.0" encoding="utf-8"?>
<!-- Generator: Adobe Illustrator 28.0.0, SVG Export Plug-In . SVG Version: 6.00 Build 0)  -->
<svg version="1.1" xmlns="http://www.w3.org/2000/svg" xmlns:xlink="http://www.w3.org/1999/xlink" x="0px" y="0px"
	 viewBox="0 0 500 500" style="enable-background:new 0 0 500 500;" xml:space="preserve">
<style type="text/css">
	.st0{display:none;}
	.st1{display:inline;}
	.st2{fill:#EEEEFF;}
	.st3{opacity:0.3;}
	.st4{fill:none;stroke:#7371FC;stroke-miterlimit:10;}
	.st5{fill:#32338C;}
	.st6{fill:#7371FC;}
	.st7{fill:#2A55FF;}
	.st8{fill:#F8AB73;}
	.st9{fill:#FE814B;}
	.st10{fill:#F8AB74;}
	.st11{fill:#FE632E;}
	.st12{fill:#FE642E;}
	.st13{fill:#050505;}
	.st14{opacity:0.4;fill:#F8AB74;}
	.st15{fill:#2E2ECC;}
	.st16{fill:#2A97FF;}
	.st17{fill:#443DC3;}
	.st18{fill:#FEFFFD;}
	.st19{fill:none;stroke:#32338C;stroke-width:4.0278;stroke-linecap:round;stroke-linejoin:round;stroke-miterlimit:10;}
	.st20{fill:#FFFFFF;}
	.st21{fill:none;stroke:#32338C;stroke-width:3.8829;stroke-linecap:round;stroke-linejoin:round;stroke-miterlimit:10;}
	.st22{fill:#92B5D3;}
	.st23{fill:#91C4FB;}
	.st24{fill:#EEEEFE;}
	.st25{fill:none;stroke:#FE814B;stroke-width:3.1984;stroke-linecap:round;stroke-linejoin:round;stroke-miterlimit:10;}
	.st26{fill:none;stroke:#91C4FB;stroke-width:3.1984;stroke-linecap:round;stroke-linejoin:round;stroke-miterlimit:10;}
	.st27{fill:#FFFFFF;stroke:#FE814B;stroke-width:3.1984;stroke-linecap:round;stroke-linejoin:round;stroke-miterlimit:10;}
	.st28{fill:#F8AB72;}
</style>
<g id="BACKGROUND" class="st0">
	<g class="st1">
		<path class="st2" d="M80.91,373.2c-53.2-62.65-34.56-155.51-2.89-183.65c31.67-28.14,81.92-43.6,108.84-76.47
			c26.92-32.88,57.93-56.42,114.61-39.45c56.68,16.96,55.83,61.03,72.84,88.3c17,27.27,92.81,42.49,88.49,112.47
			c-4.32,69.97-52.43,69.85-74.38,87.09c-21.94,17.24-56.55,98.65-125.82,99.5C177.71,462.02,125.94,426.22,80.91,373.2z"/>
		<g>
			<g transform="translate(0,-952.3622)" class="st3">
				<path class="st4" d="M272.63,988.3l-3,10.43c-2.75,0.75-5.36,1.81-7.78,3.17l-9.61-5.28l-8.59,8.48l5.34,9.48
					c-1.38,2.39-2.46,4.97-3.21,7.68l-10.56,2.96v12.01l10.56,2.96c0.76,2.71,1.83,5.29,3.21,7.68l-5.34,9.48l8.59,8.48l9.61-5.28
					c2.42,1.36,5.04,2.42,7.78,3.17l3,10.43h12.17l3-10.43c2.75-0.75,5.36-1.81,7.78-3.17l9.61,5.28l8.59-8.48l-5.34-9.48
					c1.38-2.39,2.46-4.97,3.21-7.68l10.56-2.96v-12.01l-10.56-2.96c-0.76-2.71-1.83-5.29-3.21-7.68l5.34-9.48l-8.59-8.48l-9.61,5.28
					c-2.42-1.36-5.04-2.42-7.78-3.17l-3-10.43H272.63z M278.71,1008.8c12.52,0,22.73,10.08,22.73,22.44
					c0,12.35-10.21,22.44-22.73,22.44s-22.73-10.08-22.73-22.44C255.99,1018.88,266.2,1008.8,278.71,1008.8z"/>
			</g>
			<g transform="translate(0,-952.3622)" class="st3">
				<path class="st4" d="M450.24,1185.94l-1.99,6.94c-1.83,0.5-3.57,1.2-5.18,2.11l-6.39-3.51l-5.71,5.64l3.56,6.31
					c-0.92,1.59-1.63,3.31-2.14,5.11l-7.03,1.97v7.99l7.03,1.97c0.5,1.8,1.22,3.52,2.14,5.11l-3.56,6.31l5.71,5.64l6.39-3.51
					c1.61,0.91,3.35,1.61,5.18,2.11l1.99,6.94h8.1l1.99-6.94c1.83-0.5,3.57-1.2,5.18-2.11l6.39,3.51l5.71-5.64l-3.56-6.31
					c0.92-1.59,1.63-3.31,2.14-5.11l7.03-1.97v-7.99l-7.03-1.97c-0.5-1.8-1.22-3.52-2.14-5.11l3.56-6.31l-5.71-5.64l-6.39,3.51
					c-1.61-0.91-3.35-1.61-5.18-2.11l-1.99-6.94H450.24z M454.29,1199.58c8.33,0,15.12,6.71,15.12,14.93
					c0,8.22-6.8,14.93-15.12,14.93c-8.33,0-15.12-6.71-15.12-14.93C439.17,1206.29,445.97,1199.58,454.29,1199.58z"/>
			</g>
			<g transform="translate(0,-952.3622)" class="st3">
				<path class="st4" d="M87.2,1204.22l-4.33,15.08c-3.97,1.08-7.75,2.62-11.25,4.59l-13.89-7.63l-12.42,12.26l7.73,13.71
					c-1.99,3.46-3.55,7.19-4.64,11.11l-15.27,4.28v17.37l15.27,4.28c1.09,3.92,2.65,7.65,4.64,11.11l-7.73,13.71l12.42,12.26
					l13.89-7.63c3.5,1.97,7.28,3.51,11.25,4.59l4.33,15.08h17.6l4.33-15.08c3.97-1.08,7.75-2.62,11.25-4.59l13.89,7.63l12.42-12.26
					l-7.73-13.71c1.99-3.46,3.55-7.19,4.64-11.11l15.27-4.28v-17.37l-15.27-4.28c-1.09-3.92-2.65-7.65-4.64-11.11l7.73-13.71
					l-12.42-12.26l-13.89,7.63c-3.5-1.97-7.28-3.51-11.25-4.59l-4.33-15.08H87.2z M96,1233.85c18.1,0,32.86,14.58,32.86,32.44
					s-14.77,32.44-32.86,32.44c-18.1,0-32.86-14.58-32.86-32.44S77.91,1233.85,96,1233.85z"/>
			</g>
		</g>
		<g>
			<g>
				<path class="st5" d="M243.71,445.43L243.71,445.43c2.26-5.2,6.51-9.35,11.87-11.58l0.17-0.07l-0.72-0.32
					c-5.02-2.24-9.01-6.19-11.21-11.1l-0.1-0.22l-0.56,1.1c-2.14,4.22-5.62,7.65-9.94,9.79l-1.53,0.76l0.09,0.04
					c5.14,2.12,9.28,6.01,11.62,10.92L243.71,445.43z"/>
				<path class="st6" d="M258.85,452.57L258.85,452.57c1.13-2.6,3.25-4.68,5.93-5.79l0.08-0.03l-0.36-0.16
					c-2.51-1.12-4.51-3.1-5.61-5.55l-0.05-0.11l-0.28,0.55c-1.07,2.11-2.81,3.82-4.97,4.89l-0.77,0.38l0.05,0.02
					c2.57,1.06,4.64,3.01,5.81,5.46L258.85,452.57z"/>
			</g>
			<g>
				<path class="st6" d="M453.03,152.05L453.03,152.05c-1.69-3.89-4.87-6.99-8.87-8.66l-0.12-0.05l0.54-0.24
					c3.75-1.68,6.74-4.63,8.38-8.3l0.07-0.17l0.42,0.82c1.6,3.15,4.2,5.72,7.43,7.32l1.15,0.57l-0.07,0.03
					c-3.84,1.58-6.94,4.5-8.68,8.17L453.03,152.05z"/>
				<path class="st5" d="M441.72,157.39L441.72,157.39c-0.84-1.94-2.43-3.5-4.44-4.33l-0.06-0.03l0.27-0.12
					c1.88-0.84,3.37-2.31,4.19-4.15l0.04-0.08l0.21,0.41c0.8,1.58,2.1,2.86,3.72,3.66l0.57,0.28l-0.03,0.01
					c-1.92,0.79-3.47,2.25-4.34,4.08L441.72,157.39z"/>
			</g>
			<g>
				<path class="st6" d="M53.69,239.62L53.69,239.62c-1.69-3.89-4.87-6.99-8.87-8.66l-0.12-0.05l0.54-0.24
					c3.75-1.68,6.74-4.63,8.38-8.3l0.07-0.17l0.42,0.82c1.6,3.15,4.2,5.72,7.43,7.32l1.15,0.57l-0.07,0.03
					c-3.84,1.58-6.94,4.5-8.68,8.17L53.69,239.62z"/>
				<path class="st5" d="M42.38,244.96L42.38,244.96c-0.84-1.94-2.43-3.5-4.44-4.33l-0.06-0.03l0.27-0.12
					c1.88-0.84,3.37-2.32,4.19-4.15l0.04-0.08l0.21,0.41c0.8,1.58,2.1,2.86,3.72,3.66l0.57,0.28l-0.03,0.01
					c-1.92,0.79-3.47,2.25-4.34,4.08L42.38,244.96z"/>
			</g>
		</g>
	</g>
</g>
<g id="OBJECTS">
	<g>
		<path class="st7" d="M355.78,116.24c7.37,0.94,14.44,3.35,21.03,6.77c19.16,9.94,36.39,23.57,50.46,39.93
			c5.68,6.6,11.05,14.12,11.94,22.79c1.02,9.93-3.97,19.37-8.8,28.1c-4.02,7.27-8.88,15.21-16.91,17.32
			c-6.58,1.73-13.48-1.03-19.43-4.34c-23.25-12.94-40.69-35.03-50.7-59.69c-4.86-11.98-6.67-23.36-5.84-36.19
			c0.23-3.59-9.18-3.92-6.65-6.77C334.47,120.1,345.68,114.95,355.78,116.24z"/>
		<g>
			<path class="st8" d="M414.66,137.83c-0.77,1.04-1.62,2.02-2.54,2.92c-3.17,3.07-7.1,5.26-11.19,6.92
				c-3.03,1.23-6.24,2.2-9.51,2.13c-0.36-0.01-0.73-0.03-1.09-0.07c0.16,0.63,0.39,1.23,0.78,1.76c1.21,1.64,3.46,2.06,5.49,2.18
				c5.47,0.32,11.01-0.64,16.05-2.79c0.55-0.23,1.12-0.51,1.43-1.02c0.32-0.52,0.29-1.17,0.25-1.78
				C414.13,144.6,414.32,141.2,414.66,137.83z"/>
			<path class="st9" d="M400.92,147.67c4.09-1.66,8.02-3.86,11.19-6.92c0.93-0.89,1.78-1.88,2.54-2.92
				c0.55-5.55,1.5-11.01,1.79-16.65c-5.69-1.34-14.87,4.57-18.83,8.29c-5.11,4.8-8.31,11.86-7.56,18.82
				c0.05,0.48,0.14,0.96,0.25,1.43c0.36,0.04,0.73,0.06,1.09,0.07C394.68,149.87,397.89,148.9,400.92,147.67z"/>
		</g>
		<path d="M439.23,96.01c3.46-4.87,6.97-9.81,9.1-15.39c2.14-5.58,2.79-11.97,0.51-17.5c-2.29-5.52-7.98-9.83-13.93-9.31
			c1.87-3.83-0.41-8.08-3.53-10.98c-3.12-2.9-7.42-4.18-11.63-4.83c-11.93-1.84-24.09,0.66-36.14,0.13c-4.45-0.2-9-0.85-12.87-3.05
			c-3.87-2.21-6.93-6.24-6.93-10.7c-1.56,3.39-3.31,7.49-3.05,11.21c0.26,3.72,2.29,7.5,5.73,8.96c-3.46,0.98-7.08-1.16-9.33-3.97
			c-2.25-2.81-3.14-6.49-3.37-10.08c-3.81,2.4-6.44,6.38-7.86,10.65c-1.29,3.89-1.97,8.06-1.29,12.1c0.68,4.04,2.84,7.94,6.3,10.14
			c-1.65,0.28-3.43,0.45-4.97-0.2c-0.1,2.28,1.2,4.45,2.97,5.9c1.77,1.44,3.96,2.26,6.15,2.92c7.5,2.25,15.38,2.85,23.07,4.35
			c18.15,3.53,34.91,11.93,52.16,18.59C432.73,95.88,436.72,96.63,439.23,96.01z"/>
		<g>
			<path class="st10" d="M420.3,93.3c-2.6-9.21-1.22-19.14,1.65-28.27c-9.07,8.54-22.42,10.64-34.76,8.97c4.11-2,7.83-4.8,10.9-8.2
				c-12.27-0.8-24.93,2.19-37.17,1.05c-1.4,4.24-2.31,8.65-2.81,12.73c-1.07,8.8-0.38,17.73,1.08,26.47
				c1.59,9.54,4.24,19.23,10.28,26.78c6.04,7.55,16.13,12.5,25.5,10.12c3.49-0.89,6.68-2.72,9.62-4.8
				c10.84-7.68,18.71-18.92,23.99-31.16C424.66,103.35,421.76,98.47,420.3,93.3z"/>
			<path d="M398.09,65.8c-3.06,3.4-6.78,6.2-10.9,8.2c12.34,1.67,25.69-0.43,34.76-8.97c-2.88,9.13-4.25,19.05-1.65,28.27
				c1.46,5.17,4.36,10.05,8.28,13.69c0.69-1.59,1.33-3.19,1.93-4.81c2.58-6.96,4.45-14.27,4.51-21.69
				c0.07-7.42-1.77-14.99-6.05-21.05c-6.03-8.54-16.28-13.25-26.56-15.18c-5.02-0.94-10.21-1.31-15.22-0.32
				c-6.67,1.32-15.75,5.07-20.08,10.68c-2.7,3.5-4.72,7.77-6.19,12.23C373.16,67.99,385.82,65,398.09,65.8z"/>
		</g>
		<g>
			<path class="st8" d="M423.48,93.35c-1.43,3.82-1.44,8.05-0.71,12.07c0.56,3.1,1.83,6.45,4.68,7.78c2.11,0.99,4.67,0.6,6.69-0.55
				c2.02-1.15,3.57-2.97,4.89-4.89c1.99-2.89,3.57-6.15,3.98-9.63c0.41-3.49-0.48-7.22-2.88-9.78c-2.34-2.5-6.47-4.32-9.7-2.83
				C427.17,87.02,424.73,90.03,423.48,93.35z"/>
			<g>
				<path class="st5" d="M438.52,92.07c-1.02-1.32-2.74-1.84-4.28-1.66c-3.26,0.34-5.25,3.51-6,6.45c-0.42,1.54-0.59,3.15-0.8,4.78
					l-0.98-0.41c3.16-3.98,8.57-1.68,7.32,3.4c-0.69,2.17-2.88,3.52-4.96,3.97c1.32-0.52,2.57-1.29,3.41-2.37
					c1.77-1.85,1.08-5.83-1.7-6.02c-1.9-0.12-3.34,1.78-4.4,3.18c0.44-3.89,0.65-8.29,3.49-11.33
					C431.79,89.44,436.66,88.86,438.52,92.07L438.52,92.07z"/>
			</g>
		</g>
		<g>
			<path class="st5" d="M386.69,82.94c1.79,9.14-0.08,19-4.8,27.01c0,0-0.12-0.42-0.12-0.42c0.68,0.41,1.39,0.79,2.14,1.09
				c0.75,0.3,1.52,0.54,2.32,0.73c-1.74-0.1-3.47-0.6-5.02-1.41C385.29,101.54,387.07,92.28,386.69,82.94L386.69,82.94z"/>
		</g>
		<g>
			<path class="st11" d="M383.56,124.14c1.07,0.68,2.19,1.16,3.34,1.27c3.13,0.29,6.08-2.57,8.15-5.29
				C390.89,119.84,386.64,121.33,383.56,124.14z"/>
			<path class="st5" d="M385.73,118.94c-3.99-0.41-9.91-3.99-9.91-3.99s3.38,6.39,7.74,9.19c3.08-2.81,7.33-4.3,11.49-4.02
				c1.8-2.36,2.93-4.62,2.93-4.62S389.72,119.36,385.73,118.94z"/>
		</g>
		<path d="M375.13,92.26c0.11,2.13-0.92,3.91-2.28,3.98c-1.37,0.07-2.56-1.6-2.67-3.73c-0.11-2.13,0.92-3.91,2.28-3.98
			C373.83,88.46,375.02,90.13,375.13,92.26z"/>
		<path d="M402.94,92.78c0.11,2.13-0.92,3.91-2.28,3.98c-1.37,0.07-2.56-1.6-2.67-3.73c-0.11-2.13,0.92-3.91,2.28-3.98
			C401.64,88.98,402.83,90.65,402.94,92.78z"/>
		<g>
			<path d="M364.73,84.11c1.3-2.19,3.15-4.1,5.41-5.26c2.27-1.17,4.96-1.56,7.42-0.88"/>
			<path class="st12" d="M364.54,84c0.92-3.48,3.56-6.29,6.71-7.98c2.15-1.09,4.97-0.44,6.38,1.74c0,0-0.12,0.43-0.12,0.43
				c-1.51,0.87-2.47,1.35-3.45,1.75c-0.48,0.2-0.96,0.29-1.49,0.3c-1.11-0.03-2.17,0.32-3.17,0.82c-1.68,0.76-3.09,1.85-4.48,3.17
				C364.92,84.22,364.54,84,364.54,84L364.54,84z"/>
		</g>
		<g>
			<path class="st13" d="M407.75,84.11c-1.3-2.19-3.15-4.1-5.41-5.26c-2.27-1.17-4.96-1.56-7.42-0.88"/>
			<path class="st12" d="M407.56,84.22c-1.78-1.71-3.73-3.06-6.04-3.79c-1.01-0.32-2.12-0.06-3.1-0.51
				c-0.98-0.41-1.94-0.88-3.45-1.75l-0.12-0.43c1.4-2.18,4.22-2.82,6.38-1.74c3.15,1.7,5.79,4.51,6.71,7.98
				C407.94,84,407.56,84.22,407.56,84.22L407.56,84.22z"/>
		</g>
		<g>
			<path class="st14" d="M373.74,110.21c0,1.7-2.3,3.08-5.14,3.08c-2.84,0-5.14-1.38-5.14-3.08c0-1.7,2.3-3.08,5.14-3.08
				C371.44,107.14,373.74,108.51,373.74,110.21z"/>
			<path class="st14" d="M409.4,110.21c0,1.7-2.3,3.08-5.14,3.08c-2.84,0-5.14-1.38-5.14-3.08c0-1.7,2.3-3.08,5.14-3.08
				C407.1,107.14,409.4,108.51,409.4,110.21z"/>
		</g>
		<g>
			<g>
				<path class="st10" d="M363.97,24.55c-1.43,6.95,2.16,14.56,8.35,17.9c6.37,3.19,13.9,2.14,20.79,1.67
					c9.88-0.52,22.92-3.44,31.69,2.33c2.89,2.1,5.14,5.48,5,9.14c-0.11-3.6-2.39-6.77-5.31-8.69c-8.33-5.22-21.76-2.27-31.28-1.67
					c-7.08,0.39-14.75,1.47-21.3-2.03C365.58,39.58,362.04,31.58,363.97,24.55L363.97,24.55z"/>
			</g>
			<g>
				<path class="st10" d="M425.73,61.72c-0.61-4.11-3.74-7.44-7.41-8.97c-7.78-3.27-16.06,0-23.71,2.2
					c-7.89,2.28-16.21,3.96-24.46,2.8c-4.08-0.59-8.25-1.75-11.61-4.33c-6.8-5.01-9.22-14.86-5.37-22.36
					c-3.33,7.53-0.83,16.94,5.88,21.67c3.26,2.34,7.25,3.49,11.24,4.01c8.09,1.03,16.24-0.62,24.05-2.77
					c3.93-1.08,7.84-2.44,11.96-3.02C414.24,49.47,424.65,52.52,425.73,61.72L425.73,61.72z"/>
			</g>
			<g>
				<path class="st10" d="M421.55,59.79c-4.59-6.88-14.1-3.66-19.05,1.13c-1.86,1.62-3.62,3.4-5.48,5.08
					c1.54-1.97,3.08-3.95,4.89-5.72c2.66-2.69,6.13-4.91,10-5.36C415.67,54.39,420.1,56.06,421.55,59.79L421.55,59.79z"/>
			</g>
			<g>
				<path class="st10" d="M435.58,59.58c2.96-1.02,6.3,0.53,8.13,2.95c3.78,5.01,3.35,12.02,1.07,17.55
					c-1.15,2.78-2.71,5.37-4.55,7.74c1.42-2.6,2.79-5.24,3.74-8.04c1.85-5.39,2.3-11.83-0.95-16.73
					C441.42,60.65,438.52,59.07,435.58,59.58L435.58,59.58z"/>
			</g>
			<g>
				<path class="st10" d="M427.74,64.33c4.83-0.72,7.18,4.88,7.88,8.77c0.71,3.93,0.42,8.19-1.37,11.78
					c-0.16,0.21-0.46,0.43-0.72,0.27c0.28,0.09,0.47-0.15,0.58-0.37C435.86,79.29,435.38,64.87,427.74,64.33L427.74,64.33z"/>
			</g>
		</g>
	</g>
	<g>
		
			<rect x="77.44" y="101.83" transform="matrix(0.9918 -0.128 0.128 0.9918 -20.6658 19.3997)" class="st2" width="126.42" height="137.41"/>
		
			<rect x="66.73" y="72.57" transform="matrix(0.9918 -0.128 0.128 0.9918 -10.1344 17.3474)" class="st15" width="126.42" height="29.94"/>
		
			<rect x="60.82" y="111.02" transform="matrix(0.9918 -0.128 0.128 0.9918 -22.4281 10.3616)" class="st16" width="17.21" height="137.41"/>
		
			<rect x="50.11" y="81.76" transform="matrix(0.9918 -0.128 0.128 0.9918 -11.8952 8.3082)" class="st17" width="17.21" height="29.94"/>
		
			<rect x="80.46" y="117.64" transform="matrix(0.9918 -0.128 0.128 0.9918 -15.9914 12.6064)" class="st18" width="19.32" height="26.23"/>
		
			<rect x="103.2" y="114.71" transform="matrix(0.9918 -0.128 0.128 0.9918 -15.4293 15.4926)" class="st18" width="19.32" height="26.23"/>
		
			<rect x="125.94" y="111.78" transform="matrix(0.9918 -0.128 0.128 0.9918 -14.8677 18.3795)" class="st18" width="19.32" height="26.23"/>
		
			<rect x="148.68" y="108.84" transform="matrix(0.9918 -0.128 0.128 0.9918 -14.3045 21.2643)" class="st18" width="19.32" height="26.23"/>
		
			<rect x="171.42" y="105.91" transform="matrix(0.9918 -0.128 0.128 0.9918 -13.7413 24.1486)" class="st18" width="19.32" height="26.23"/>
		
			<rect x="84.25" y="147.06" transform="matrix(0.9918 -0.128 0.128 0.9918 -19.7246 13.3343)" class="st18" width="19.32" height="26.23"/>
		
			<rect x="106.99" y="144.12" transform="matrix(0.9918 -0.128 0.128 0.9918 -19.1606 16.2187)" class="st18" width="19.32" height="26.23"/>
		
			<rect x="129.73" y="141.19" transform="matrix(0.9918 -0.128 0.128 0.9918 -18.5996 19.1059)" class="st18" width="19.32" height="26.23"/>
		
			<rect x="152.47" y="138.25" transform="matrix(0.9918 -0.128 0.128 0.9918 -18.0365 21.9908)" class="st18" width="19.32" height="26.23"/>
		
			<rect x="175.21" y="135.32" transform="matrix(0.9918 -0.128 0.128 0.9918 -17.4748 24.8776)" class="st18" width="19.32" height="26.23"/>
		
			<rect x="88.05" y="176.47" transform="matrix(0.9918 -0.128 0.128 0.9918 -23.4571 14.0616)" class="st18" width="19.32" height="26.23"/>
		
			<rect x="110.79" y="173.54" transform="matrix(0.9918 -0.128 0.128 0.9918 -22.8949 16.9477)" class="st18" width="19.32" height="26.23"/>
		
			<rect x="133.53" y="170.6" transform="matrix(0.9918 -0.128 0.128 0.9918 -22.3305 19.8316)" class="st18" width="19.32" height="26.23"/>
		
			<rect x="156.27" y="167.67" transform="matrix(0.9918 -0.128 0.128 0.9918 -21.7701 22.7196)" class="st18" width="19.32" height="26.23"/>
		
			<rect x="179.01" y="164.73" transform="matrix(0.9918 -0.128 0.128 0.9918 -21.2074 25.6051)" class="st18" width="19.32" height="26.23"/>
		
			<rect x="91.84" y="205.88" transform="matrix(0.9918 -0.128 0.128 0.9918 -27.1897 14.789)" class="st18" width="19.32" height="26.23"/>
		
			<rect x="114.58" y="202.95" transform="matrix(0.9918 -0.128 0.128 0.9918 -26.6263 17.6742)" class="st18" width="19.32" height="26.23"/>
		
			<rect x="137.32" y="200.01" transform="matrix(0.9918 -0.128 0.128 0.9918 -26.065 20.5609)" class="st18" width="19.32" height="26.23"/>
		
			<rect x="160.06" y="197.08" transform="matrix(0.9918 -0.128 0.128 0.9918 -25.5006 23.4446)" class="st18" width="19.32" height="26.23"/>
		
			<rect x="182.8" y="194.15" transform="matrix(0.9918 -0.128 0.128 0.9918 -24.9401 26.3325)" class="st18" width="19.32" height="26.23"/>
		<path class="st19" d="M58.34,81.69l-1.09-8.44c-0.68-5.29,3.05-10.13,8.34-10.82l5.87-0.76c5.29-0.68,10.13,3.05,10.82,8.34
			l1.88,14.54c0.68,5.29-3.05,10.13-8.34,10.82l0,0"/>
		<path class="st19" d="M75.07,79.53l-1.09-8.44c-0.68-5.29,3.05-10.13,8.34-10.82l5.87-0.76c5.29-0.68,10.13,3.05,10.82,8.34
			l1.88,14.54c0.68,5.29-3.05,10.13-8.34,10.82l0,0"/>
		<path class="st19" d="M91.8,77.37l-1.09-8.44c-0.68-5.29,3.05-10.13,8.34-10.82l5.87-0.76c5.29-0.68,10.13,3.05,10.82,8.34
			l1.88,14.54c0.68,5.29-3.05,10.13-8.34,10.82l0,0"/>
		<path class="st19" d="M108.53,75.21l-1.09-8.44c-0.68-5.29,3.05-10.13,8.34-10.82l5.87-0.76c5.29-0.68,10.13,3.05,10.82,8.34
			l1.88,14.54c0.68,5.29-3.05,10.13-8.34,10.82l0,0"/>
		<path class="st19" d="M125.26,73.05l-1.09-8.44c-0.68-5.29,3.05-10.13,8.34-10.82l5.87-0.76c5.29-0.68,10.13,3.05,10.82,8.34
			l1.88,14.54c0.68,5.29-3.05,10.13-8.34,10.82l0,0"/>
		<path class="st19" d="M141.98,70.89l-1.09-8.44c-0.68-5.29,3.05-10.13,8.34-10.82l5.87-0.76c5.29-0.68,10.13,3.05,10.82,8.34
			l1.88,14.54c0.68,5.29-3.05,10.13-8.34,10.82l0,0"/>
		<path class="st19" d="M158.71,68.74l-1.09-8.44c-0.68-5.29,3.05-10.13,8.34-10.82l5.87-0.76c5.29-0.68,10.13,3.05,10.82,8.34
			l1.88,14.54c0.68,5.29-3.05,10.13-8.34,10.82l0,0"/>
	</g>
	<g>
		<circle class="st5" cx="248.27" cy="255.87" r="153.24"/>
		<circle class="st16" cx="255.48" cy="255.87" r="153.24"/>
		<g>
			<path class="st20" d="M279.37,331.53c27.65-11.16,52.75-29.71,69.03-54.7c18.91-29.01,24.62-64.2,22.96-99.2
				c-25.13-37.15-67.66-61.58-115.89-61.58c-77.22,0-139.81,62.6-139.81,139.81c0,25.6,6.88,49.58,18.89,70.22
				C179.43,347.3,233.21,350.15,279.37,331.53z"/>
			<path class="st2" d="M371.37,177.63c1.66,35-4.05,70.19-22.96,99.2c-16.28,24.98-41.38,43.54-69.03,54.7
				c-46.16,18.62-99.95,15.77-144.82-5.45c24.22,41.62,69.3,69.6,120.92,69.6c77.22,0,139.81-62.6,139.81-139.81
				C395.29,226.89,386.47,199.96,371.37,177.63z"/>
		</g>
		<polygon class="st5" points="253.95,257.68 188.17,199.04 257,254.06 		"/>
		<polygon class="st5" points="258.1,254.21 288.45,365.65 252.86,257.53 		"/>
		<circle cx="255.48" cy="255.87" r="10.36"/>
		<g>
			<line class="st21" x1="255.48" y1="116.06" x2="255.48" y2="145.78"/>
			<line class="st21" x1="255.48" y1="365.96" x2="255.48" y2="395.69"/>
			<line class="st21" x1="395.29" y1="255.87" x2="365.57" y2="255.87"/>
			<line class="st21" x1="145.38" y1="255.87" x2="115.66" y2="255.87"/>
		</g>
		<g>
			<line class="st21" x1="137.46" y1="180.9" x2="162.55" y2="196.84"/>
			<line class="st21" x1="348.41" y1="314.9" x2="373.49" y2="330.84"/>
			<line class="st21" x1="330.45" y1="137.86" x2="314.51" y2="162.94"/>
			<line class="st21" x1="196.44" y1="348.8" x2="180.51" y2="373.89"/>
		</g>
		<g>
			<line class="st21" x1="373.49" y1="180.9" x2="348.41" y2="196.84"/>
			<line class="st21" x1="162.55" y1="314.9" x2="137.46" y2="330.84"/>
			<line class="st21" x1="180.51" y1="137.86" x2="196.44" y2="162.94"/>
			<line class="st21" x1="314.51" y1="348.8" x2="330.45" y2="373.89"/>
		</g>
	</g>
	<g>
		
			<rect x="52.64" y="356.01" transform="matrix(0.9351 -0.3544 0.3544 0.9351 -132.1107 69.8979)" class="st16" width="144.3" height="79.31"/>
		<polygon class="st22" points="123.57,392.43 43.27,384.15 126.6,400.42 178.21,333.01 		"/>
	</g>
	<g>
		<g>
			
				<rect x="304.66" y="299.43" transform="matrix(0.9733 0.2297 -0.2297 0.9733 97.8189 -74.6006)" class="st5" width="129.25" height="166.73"/>
			
				<rect x="306.99" y="299.98" transform="matrix(0.9733 0.2297 -0.2297 0.9733 98.0079 -75.1222)" class="st23" width="129.25" height="166.73"/>
			
				<rect x="316.84" y="316.01" transform="matrix(0.9733 0.2297 -0.2297 0.9733 98.7036 -74.8703)" class="st20" width="108.09" height="140.89"/>
			<path class="st5" d="M413.67,289.42l-37.66-8.89c-6.05-1.43-12.11,2.32-13.54,8.37l-1.48,6.28l59.56,14.06l1.48-6.28
				C423.46,296.91,419.72,290.85,413.67,289.42z"/>
			<g>
				<path class="st24" d="M359.47,332.69c-1.32,5.59-6.92,9.04-12.5,7.73c-5.59-1.32-9.04-6.92-7.73-12.5
					c1.32-5.59,6.92-9.04,12.5-7.73C357.33,321.51,360.79,327.11,359.47,332.69z"/>
				<polyline class="st25" points="344.64,325.32 349.16,331.6 361.34,325.21 				"/>
				<g>
					<line class="st26" x1="369.6" y1="328.41" x2="426.86" y2="341.93"/>
					<line class="st26" x1="368.11" y1="334.73" x2="425.37" y2="348.25"/>
					<line class="st26" x1="366.62" y1="341.06" x2="423.87" y2="354.57"/>
				</g>
			</g>
			<g>
				<path class="st24" d="M351.87,364.89c-1.32,5.59-6.92,9.04-12.5,7.73c-5.59-1.32-9.04-6.92-7.73-12.5
					c1.32-5.59,6.92-9.04,12.5-7.73C349.73,353.71,353.19,359.31,351.87,364.89z"/>
				<polyline class="st25" points="336.9,358.1 341.24,365.13 353.73,357.41 				"/>
				<g>
					<line class="st26" x1="362" y1="360.61" x2="419.26" y2="374.12"/>
					<line class="st26" x1="360.51" y1="366.93" x2="417.76" y2="380.45"/>
					<line class="st26" x1="359.02" y1="373.26" x2="416.27" y2="386.77"/>
				</g>
			</g>
			<g>
				<path class="st24" d="M344.27,397.09c-1.32,5.59-6.92,9.04-12.5,7.73c-5.59-1.32-9.04-6.92-7.73-12.5
					c1.32-5.59,6.92-9.04,12.5-7.73C342.13,385.91,345.59,391.51,344.27,397.09z"/>
				<polyline class="st25" points="329.3,390.3 333.64,397.33 346.13,389.61 				"/>
				<g>
					<line class="st26" x1="354.4" y1="392.81" x2="411.66" y2="406.32"/>
					<line class="st26" x1="352.91" y1="399.13" x2="410.16" y2="412.65"/>
					<line class="st26" x1="351.42" y1="405.45" x2="408.67" y2="418.97"/>
				</g>
			</g>
			<path class="st23" d="M427.32,320.82l-77.57-18.31c-2.45-0.58-3.96-3.03-3.38-5.47l1.19-5.03l86.43,20.4l-1.19,5.03
				C432.22,319.89,429.77,321.4,427.32,320.82z"/>
		</g>
		<g>
			<path class="st24" d="M336.9,429.35c-1.32,5.59-6.92,9.04-12.5,7.73c-5.59-1.32-9.04-6.92-7.73-12.5
				c1.32-5.59,6.92-9.04,12.5-7.73C334.76,418.16,338.22,423.76,336.9,429.35z"/>
			<polyline class="st27" points="321.83,422.99 326.28,429.58 338.59,422.63 			"/>
			<g>
				<line class="st26" x1="347.04" y1="425.06" x2="404.29" y2="438.58"/>
				<line class="st26" x1="345.54" y1="431.39" x2="402.8" y2="444.9"/>
				<line class="st26" x1="344.05" y1="437.71" x2="401.31" y2="451.22"/>
			</g>
		</g>
	</g>
	<g>
		<g>
			<path class="st20" d="M416.67,169.26c-1.37,3.3-3.04,6.44-4.78,9.53c-1.77,3.08-3.61,6.11-5.75,8.98
				c1.37-3.3,3.04-6.44,4.78-9.53C412.7,175.16,414.54,172.13,416.67,169.26z"/>
		</g>
		<g>
			<path class="st7" d="M431.41,215.09c0,0-10.09,15.84-20.08,27.63c-9.99,11.8-24.07,25.02-24.07,25.02l-75.34-31.56l11.06-25.8
				l55.16,17.04l31.78-44.98L431.41,215.09z"/>
			<g>
				<path class="st28" d="M311.1,205.39l11.88,4.99l-7.79,18.18l-7.72-2.63l-17.04,0.7l-5-2.5c-1.84-0.92-2.54-3.19-1.53-4.98
					l1.37-2.43l-1.21-0.94c-1.72-1.35-1.86-3.91-0.29-5.43l1.36-1.31l-1.84-2.49c-1.31-1.78-0.73-4.3,1.22-5.33l1.87-0.98
					l-0.61-3.31c-0.34-1.88,0.84-3.7,2.69-4.15v0c2.4-0.59,4.94-0.09,6.95,1.35L311.1,205.39z"/>
				<path class="st28" d="M311.31,206.61c-3.61-7.74-7.29-15.69-7.94-24.21c-0.03-0.42-0.09-0.89-0.43-1.13
					c-0.2-0.14-0.45-0.17-0.69-0.17c-2-0.02-3.83,1.47-4.54,3.33c-0.72,1.87-0.44,4.01,0.41,5.82c0.19,0.4,0.41,0.81,0.39,1.25
					c-0.02,0.38-0.21,0.73-0.4,1.06c-0.63,1.11-1.26,2.21-1.89,3.32C300.15,200.67,305.45,204.57,311.31,206.61z"/>
				<g>
					<path class="st5" d="M304.41,201.46c-0.72-0.45-1.39-0.94-2.07-1.44c-0.68-0.5-1.32-1.02-1.97-1.55
						c-0.64-0.54-1.28-1.08-1.89-1.65c-0.61-0.57-1.22-1.15-1.79-1.77c0.72,0.45,1.39,0.94,2.07,1.44c0.68,0.5,1.32,1.02,1.97,1.55
						c0.64,0.54,1.28,1.08,1.89,1.65C303.23,200.26,303.84,200.84,304.41,201.46z"/>
				</g>
			</g>
			<g>
				<path class="st10" d="M300.49,99.82l18.23,7.04c2.37,0.91,3.83,3.29,3.58,5.82l-0.92,9.28l-6.31,10.34c0,0-2.59-0.72-1.65-3.62
					c0.93-2.9,4.03-10.65,4.03-10.65v-5.48c0,0-2.99,12.65-5.84,15c-2.85,2.35-13.18-2.24-15.97-4.51
					c-1.36-1.11,1.06-4.69,1.39-10.03C297.38,107.39,295.78,100.03,300.49,99.82z"/>
				<g>
					<path class="st5" d="M312.15,104.06c0.31,2.1,0.36,4.23,0.22,6.35c-0.14,2.12-0.53,4.23-1.07,6.29
						c-0.58,2.05-1.32,4.06-2.27,5.96c-0.95,1.9-2.08,3.72-3.41,5.37c1.14-1.78,2.16-3.63,3.02-5.55c0.86-1.92,1.59-3.89,2.12-5.92
						c0.57-2.02,0.94-4.09,1.18-6.18C312.18,108.28,312.23,106.17,312.15,104.06z"/>
				</g>
				<g>
					<path class="st5" d="M305.22,101.65c0.2,2.06,0.18,4.15,0.02,6.22c-0.16,2.07-0.52,4.13-0.99,6.15
						c-0.51,2.02-1.14,4.01-1.94,5.92c-0.41,0.95-0.84,1.9-1.32,2.82c-0.25,0.45-0.48,0.92-0.76,1.36
						c-0.27,0.44-0.64,0.88-1.15,1.03c0.48-0.21,0.78-0.66,1.02-1.1c0.23-0.45,0.43-0.94,0.64-1.41c0.42-0.94,0.81-1.9,1.17-2.86
						c0.72-1.93,1.34-3.89,1.8-5.9c0.51-1.99,0.85-4.02,1.1-6.07C305.06,105.78,305.18,103.72,305.22,101.65z"/>
				</g>
			</g>
		</g>
	</g>
	<g>
	</g>
	<g>
	</g>
	<g>
	</g>
	<g>
	</g>
	<g>
	</g>
	<g>
	</g>
</g>
</svg>
